# xmcd
# Copyright (C) 1995-1998 Ti Kan
#
# Track frame offsets:
#       150
#       3277
#       6328
#       7362
#
# Disc length: 112 seconds
#
# Revision: 0
# Processed by: cddbd v1.5.2PL0 Copyright (c) Steve Scherf et al.
# Submitted via: CD-Import v1.0
#
DISCID=26006e04
DTITLE=Andrew - Jingles
DYEAR=1900
DGENRE=
TTITLE0=Fcwanfang
TTITLE1=Fcwschluss
TTITLE2=Erfüllunganfang
TTITLE3=Erfüllungschluss
EXTD=
EXTT0=
EXTT1=
EXTT2=
EXTT3=
PLAYORDER=
